# xmcd
#
# Track frame offsets: 
#        183
#        22388
#        40938
#        58773
#        76650
#        93995
#        126390
#        143570
#        160788
#
# Disc length: 2358 seconds
#
# Revision: 2
# Processed by: cddbd v1.5.1PL0 Copyright (c) Steve Scherf et al.
# Submitted via: ExactAudioCopy v0.95b3
#
DISCID=72093409
DTITLE=Walter "Wolfman" Washington - Get On Up - Charly Blues Masterwo
DTITLE=rks - Vol. 09
DYEAR=1992
DGENRE=Blues
TTITLE0=It's Rainin' In My Life
TTITLE1=Good And Juicy
TTITLE2=Girl, Don't Ever Leave Me
TTITLE3=Nobody's Fault But Mine
TTITLE4=Honky Tonk
TTITLE5=Get On Up (The Wolfman's Song)
TTITLE6=You Got Me Worried
TTITLE7=Sure Enough It's You
TTITLE8=Lovely Day
EXTD=
EXTT0=W. Washington\n
EXTT1=W. Washington\n
EXTT2=W. Washington\n
EXTT3=W. Washington\n
EXTT4=Doggett, Shepherd, Scott, Butler, Glover\n
EXTT5=W. Washington\n
EXTT6=W. Washington\n
EXTT7=W. Washington\n
EXTT8=W. Washington\n
PLAYORDER=
